<svg xmlns="http://www.w3.org/2000/svg" width="159.776" height="174.918" viewBox="0 0 159.776 174.918"><defs><style>.a{fill:#fff;fill-rule:evenodd;}</style></defs><g transform="translate(-5726.466 -7903.554)"><path class="a" d="M81.614,43.158,92.405,53.95,81.614,64.822,70.822,53.95Zm0,26.9A16.107,16.107,0,1,0,65.507,53.95,16.154,16.154,0,0,0,81.614,70.056Z" transform="translate(5682.138 7865.711)"/><path class="a" d="M80.666,43.337l8.7,8.617-8.7,8.778-8.778-8.778Zm0,22.63A14.013,14.013,0,1,0,66.653,51.954,14.022,14.022,0,0,0,80.666,65.966Z" transform="translate(5773.283 7873.506)"/><path class="a" d="M111.478,142.963V104.146l-2.657-2.657-2.658,2.657v38.817l-5.476,5.557-5.557-5.557V95.932h27.382v47.031l-5.557,5.557ZM86.029,95.61l-3.785-3.866V53.974L92.472,43.666h14.013v2.174l2.658,2.738,2.657-2.738V43.666H125.49L135.8,53.974v37.77l-3.786,3.866-3.865-3.544V56.149l-2.577-2.577h-.081l-2.657,2.577V90.617h-27.7V56.149l-2.657-2.577-2.657,2.577v35.6ZM127.745,99.8l4.268,1.128,9.1-9.181V53.974A15.638,15.638,0,0,0,125.49,38.351H92.472A15.621,15.621,0,0,0,76.929,53.974v37.77l9.1,9.181,3.785-.886v42.924l1.61,5.557H68.956L66.3,151.1l2.657,2.658h69.5l2.657-2.658-2.657-2.577H126.3l1.449-5.557V99.8Z" transform="translate(5745.128 7906.115)"/><path class="a" d="M69.456,68.578l2.657-2.657v-24.8L69.456,38.54,66.8,41.117v24.8l2.658,2.657" transform="translate(5784.814 7921.146)"/><path class="a" d="M85.941,161.785V105.573h33.341v56.212l-7.006,7.087-7.007-7.087V115.8l-2.657-2.577L99.954,115.8v45.984l-7.007,7.087ZM75.633,106.218l-5.074-5.074V56.367L83.283,43.643h3.7L100.356,64.1v36.24H85.941V59.025l-2.657-2.657-2.658,2.657v42.119Zm37.126-62.575-9.744,14.818L93.35,43.643Zm22.308,12.724v44.776l-4.993,5.074-4.993-4.832V59.025l-2.657-2.657-2.739,2.657v41.314H105.671V64.1L119.04,43.643h3.383Zm28.992,112.5H122.423l2.174-7.087V109.922l5.476,1.53,10.308-10.308V56.367a17.993,17.993,0,0,0-17.959-18.039H83.283A18.01,18.01,0,0,0,65.244,56.367v44.776l10.389,10.308,4.993-1.288v51.621l2.174,7.087H67.9l-2.657,2.577,2.657,2.738h96.157l2.657-2.738-2.657-2.577Z" transform="translate(5661.222 7904.285)"/></g></svg>