<svg xmlns="http://www.w3.org/2000/svg" width="64.655" height="64.655" viewBox="0 0 64.655 64.655"><defs><style>.a{fill:#fff;}</style></defs><path class="a" d="M0,51.181v5.392c0,4.458,10.86,8.082,24.246,8.082s24.246-3.624,24.246-8.082V51.181c-5.215,3.675-14.749,5.392-24.246,5.392S5.215,54.856,0,51.181ZM40.41,16.164c13.386,0,24.246-3.624,24.246-8.082S53.8,0,40.41,0,16.164,3.624,16.164,8.082,27.024,16.164,40.41,16.164ZM0,37.934v6.516c0,4.458,10.86,8.082,24.246,8.082s24.246-3.624,24.246-8.082V37.934c-5.215,4.294-14.762,6.516-24.246,6.516S5.215,42.228,0,37.934Zm52.532,1.389c7.236-1.4,12.123-4,12.123-7V26.935c-2.93,2.071-7.236,3.485-12.123,4.357ZM24.246,20.2C10.86,20.2,0,24.726,0,30.307s10.86,10.1,24.246,10.1,24.246-4.521,24.246-10.1S37.631,20.2,24.246,20.2Zm27.693,7.11c7.577-1.364,12.716-4.041,12.716-7.11V14.813c-4.483,3.17-12.186,4.874-20.293,5.278C48.087,21.9,50.828,24.321,51.939,27.314Z"/></svg>