<svg xmlns="http://www.w3.org/2000/svg" width="204.917" height="188.093" viewBox="0 0 204.917 188.093"><defs><style>.a{fill:#fff;fill-rule:evenodd;}</style></defs><g transform="translate(-638.953 -769.078)"><path class="a" d="M180.946,150.192l-.662-.095-1.229.284-13.8,4.632c-1.323-31-31.758-55.766-69-55.766a77.458,77.458,0,0,0-26.276,4.442l-.567-7.467c0-33.838,33.46-61.343,74.481-61.343s74.481,27.505,74.481,61.343a52.014,52.014,0,0,1-6.522,24.953l-.189,2.458L221.4,158.6Zm-84.689,58.7a73.263,73.263,0,0,1-29.679-6.238l-1.89-.189L31.039,209.55l8.129-29.112-.284-2.268L33.5,157.186c0-28.545,28.167-51.7,62.761-51.7,34.689,0,62.855,23.157,62.855,51.7C159.112,185.636,130.946,208.888,96.257,208.888Zm132.421-47.071L217.9,123.159a57.9,57.9,0,0,0,6.616-26.938c0-37.24-36.2-67.581-80.625-67.581-44.518,0-80.719,30.341-80.719,67.581l.945,9.736c-21.929,9.641-36.862,29.017-36.862,51.229l5.577,22.779-9.074,32.8.662,2.93,2.268,1.04.662-.094,37.619-7.845a81.052,81.052,0,0,0,31.286,6.238c36.39,0,66.258-23.724,68.81-53.592l15.5-5.009,44.518,9.357h.662l2.268-1.04.662-2.93Z" transform="translate(615.192 740.438)"/><path class="a" d="M113.973,29.121H27.583L24.558,32.24l3.024,3.214h86.39l3.119-3.214-3.119-3.119" transform="translate(689.727 785.42)"/><path class="a" d="M70.861,29.365H28.044L25.019,32.39,28.044,35.6H70.861L73.98,32.39l-3.119-3.025" transform="translate(732.839 808.239)"/><path class="a" d="M49.351,29.608H28.368l-3.119,3.214,3.119,3.024H49.351l3.119-3.024-3.119-3.214" transform="translate(754.348 830.964)"/><path class="a" d="M88.908,29.76H27.281l-3.119,3.119L27.281,35.9H88.908l3.119-3.025L88.908,29.76" transform="translate(652.693 845.179)"/><path class="a" d="M88.908,29.99H27.281l-3.119,3.119,3.119,3.119H88.908l3.119-3.119L88.908,29.99" transform="translate(652.693 866.688)"/><path class="a" d="M73.406,30.221H27.281l-3.119,3.024,3.119,3.119H73.406l3.119-3.119-3.119-3.024" transform="translate(652.693 888.292)"/></g></svg>