<svg xmlns="http://www.w3.org/2000/svg" width="160.846" height="181.684" viewBox="0 0 160.846 181.684"><defs><style>.a,.b{fill:#fff;}.a{fill-rule:evenodd;}.b{font-size:90px;font-family:RobotoCondensed-Bold, Roboto Condensed;font-weight:700;}</style></defs><g transform="translate(-4332.499 -9184.149)"><path class="a" d="M16.757,92.188H77.262l2.762-2.763-2.762-2.677H16.757l-2.762,2.677,2.762,2.763" transform="translate(4367.796 9204.773)"/><path class="a" d="M16.757,92.561H61.11l2.762-2.846L61.11,86.954H16.757l-2.762,2.761,2.762,2.846" transform="translate(4367.796 9221.808)"/><path class="a" d="M168.728,119.107l-8.285,8.285h-2.762V99.859h2.762l8.285,8.2Zm0,22.009v11.047l-8.285,8.2h-2.762V132.832h2.762Zm0,33.057v10.962l-8.285,8.285h-2.762V165.972h2.762Zm0,33.056v11.047l-8.285,8.2h-2.762V198.944h2.762Zm-19.248,54.4H29.306L18.846,251.248l10.461-10.377H149.48l-2.762,10.377ZM29.306,90.9h4.435V235.347H29.306l-10.461,3.933v-138ZM152.158,97.1v138.25H39.265V90.9H152.158Zm22.093,22.009V108.06a13.8,13.8,0,0,0-13.808-13.725h-2.762V88.227l-2.762-2.762H29.306a15.876,15.876,0,0,0-15.9,15.816V251.248a15.894,15.894,0,0,0,15.9,15.9H154.92l2.594-1.675-.586-3.012-4.687-11.214,4.687-11.214.5-.837.084-.167.167-.753V232h2.762a13.751,13.751,0,0,0,13.808-13.725V207.229l-5.607-11.047,5.607-11.047V174.173l-5.607-10.964,5.607-11.046V141.116l-5.607-10.963,5.607-11.047Z" transform="translate(4319.093 9098.684)"/><text class="b" transform="translate(4413 9274.897)"><tspan x="-20.171" y="0">?</tspan></text></g></svg>