<svg xmlns="http://www.w3.org/2000/svg" width="175.691" height="178.99" viewBox="0 0 175.691 178.99"><defs><style>.a{fill:#fff;fill-rule:evenodd;}</style></defs><g transform="translate(-6161.694 -7387.842)"><path class="a" d="M120.591,84.537a25.929,25.929,0,1,1,25.888-25.97A26.02,26.02,0,0,1,120.591,84.537Zm35.864-28.691h-4.7l-2.8-10.553,4.122-2.308.906-3.71-3.71-.989-4.04,2.308-7.749-7.668,2.391-4.04-.99-3.793-3.71,1.072-2.392,3.957-10.47-2.8V22.7l-2.721-2.8-2.721,2.8v4.617l-10.553,2.8-2.308-3.957-3.71-1.072-1.071,3.793,2.391,4.04-7.75,7.668-4.04-2.308-3.71.989.99,3.71,4.04,2.308-2.8,10.553h-4.7l-2.72,2.721,2.72,2.638h4.7l2.8,10.553-4.04,2.473-.99,3.71,2.391,1.319,1.32-.412,4.04-2.308,7.75,7.75-2.391,4.04,1.071,3.628,1.32.412,2.391-1.319,2.308-4.122,10.553,2.8v4.782l2.721,2.638,2.721-2.638V89.731l10.47-2.8,2.392,4.122,2.308,1.319,1.4-.412.99-3.628-2.391-4.04,7.749-7.75,4.04,2.308,1.4.412,2.308-1.319-.906-3.71-4.122-2.473,2.8-10.553h4.7l2.721-2.638-2.721-2.721Z" transform="translate(6120.58 7469.681)"/><path class="a" d="M93.062,29.672l5.276,4.534,2.8,2.8,2.639-2.8-8-9.646V22.911l-2.721-2.8-2.721,2.8V24.56l-8.08,9.646,10.8,9.976,5.276,4.7L93.062,53.5,87.7,48.882l-2.721-2.721-2.721,2.721,8.08,9.646v1.731l2.721,2.721,2.721-2.721V58.528l8-9.646L93.062,38.823,87.7,34.206l5.359-4.534" transform="translate(6148.108 7486.703)"/><path class="a" d="M119.272,105.068l-3.38,1.154-3.051,5.441-5.936-3.38,3.133-5.441-.578-3.463-5.853-5.854-3.463-.659L94.7,96.082l-3.38-5.854,5.441-3.215,1.154-3.3L95.856,75.8l-2.72-2.308H86.87V66.731h6.266l2.72-2.308,2.061-7.915-1.154-3.3-5.441-3.133,3.38-5.854,5.442,3.133,3.463-.66,5.853-5.771.578-3.463L106.9,31.939l5.936-3.38,3.051,5.524,3.38,1.072,7.915-2.061,2.308-2.721V24.024h6.761v6.348l2.308,2.721,7.915,2.061,3.3-1.072,3.133-5.524,5.936,3.38-3.133,5.524.577,3.463,5.853,5.771,3.463.66,5.442-3.133,3.38,5.854-5.442,3.133-1.154,3.3,2.061,7.915,2.721,2.308h6.266v6.761h-6.266L169.893,75.8l-2.061,7.915,1.154,3.3,5.442,3.215-3.38,5.854-5.442-3.215-3.463.659-5.853,5.936-.577,3.38,3.133,5.441-5.936,3.38-3.133-5.441-3.3-1.154-7.915,2.061-2.308,2.721V116.2h-6.761V109.85l-2.308-2.721Zm4.782,11.378,5.195,5.112H136.5l5.195-5.112v-4.287l4.534-1.237,2.144,3.71,7.091,1.9,6.266-3.627,1.9-7.091-2.144-3.71,3.38-3.3,3.71,2.061,7.008-1.814,3.71-6.348.495-3.875L177.4,85.694l-3.71-2.226,1.154-4.535h4.37l5.112-5.112V66.484l-5.112-5.112h-4.37l-1.154-4.617,3.71-2.144,1.9-7.008-3.71-6.431-7.008-1.814-3.71,2.061-3.38-3.3,2.144-3.71-1.9-7.008-6.266-3.628-7.091,1.814-2.144,3.71L141.7,28.064v-4.2L136.5,18.665h-7.255l-5.195,5.194v4.2L119.519,29.3l-2.144-3.71-7.09-1.814L104.019,27.4l-1.9,7.008,2.144,3.71-3.38,3.3-3.71-2.061L93.3,38.864l-3.133,2.308L86.458,47.6l1.9,7.008,3.71,2.144L90.91,61.372H86.622l-5.193,5.112v7.338l5.193,5.112H90.91l1.154,4.535-3.71,2.226-2.391,3.133.494,3.875,3.71,6.348,7.008,1.814,3.71-2.061,3.38,3.3-2.144,3.71,1.9,7.091,6.266,3.627,7.09-1.9,2.144-3.71,4.535,1.237v4.287Z" transform="translate(6080.265 7369.177)"/><path class="a" d="M150.766,58.757,141.2,60.323l-2.226,1.732L137.9,64.693l.247,2.886,5.689,7.75-4.452,4.535-7.914-5.689-2.8-.247L126.032,75l-1.814,2.226-1.566,9.564h-6.266l-1.567-9.564L113.006,75l-2.639-1.072-2.8.247-7.833,5.689L95.2,75.328l5.689-7.75.247-2.886-1.072-2.638-2.144-1.732-9.645-1.566-.165-3.215.165-3.133,9.645-1.566,2.144-1.814,1.072-2.638-.247-2.721L95.2,35.754l4.535-4.535,7.833,5.689,2.8.247,2.639-1.072,1.814-2.144,1.567-9.646h6.266l1.566,9.646,1.814,2.144,2.638,1.072,2.8-.247,7.914-5.689,4.452,4.535-5.689,7.915L137.9,46.39l1.071,2.638,2.226,1.814,9.564,1.566.165,3.133Zm5.112-9.151L153.569,47.3l-9.976-1.566-.165-.247,6.019-8.245V34.105L140.955,25.7h-3.133l-8.244,5.936-.247-.083-1.649-10.058-2.144-2.226H113.5l-2.226,2.226L109.709,31.55l-.249.083L101.216,25.7H98.083l-8.491,8.409.082,3.133,5.936,8.245-.082.247L85.468,47.3,83.16,49.605l-.494,5.936.494,5.936,2.308,2.309,10.059,1.566.082.247-5.936,8.245-.082,3.133,8.491,8.492,3.133-.083,8.244-5.854.249.083,1.566,10.058L113.5,91.9l6.018.412,6.019-.412,2.144-2.226,1.649-10.058.247-.165,8.244,5.936,3.133.083,8.492-8.492V73.844L143.428,65.6l.165-.247,9.976-1.566,2.308-2.309.495-5.936-.495-5.936Z" transform="translate(6181.013 7418.045)"/><path class="a" d="M96.225,40.732l-7.833-7.915L96.225,24.9l7.915,7.915Zm0-21.188L82.952,32.818,96.225,46.092,109.5,32.818,96.225,19.544Z" transform="translate(6204.306 7440.767)"/><path class="a" d="M87.187,44.293a19.87,19.87,0,1,1,19.87,19.87A19.88,19.88,0,0,1,87.187,44.293Zm45.18,0a25.311,25.311,0,1,0-25.311,25.393,25.369,25.369,0,0,0,25.311-25.393Z" transform="translate(6106.082 7394.996)"/><path class="a" d="M88.094,60.333l2.721,2.639,2.72-2.639V32.714h5.442L90.815,18.7l-8.08,14.016h5.359V60.333" transform="translate(6186.633 7371.864)"/><path class="a" d="M88.352,49.7l2.722,2.638,2.72-2.638V32.714h5.359L91.073,18.7l-8.08,14.016h5.359V49.7" transform="translate(6207.646 7371.864)"/></g></svg>