<svg xmlns="http://www.w3.org/2000/svg" width="82.68" height="64.926" viewBox="0 0 82.68 64.926"><defs><style>.a{fill:#fff;}</style></defs><g transform="translate(-2.25 -5.632)"><path class="a" d="M82.346,25.024H4.834a2.584,2.584,0,0,0,0,5.167H82.346a2.584,2.584,0,0,0,0-5.167Z" transform="translate(0 31.508)"/><path class="a" d="M82.346,28.4H4.834a2.584,2.584,0,0,0,0,5.167H82.346a2.584,2.584,0,1,0,0-5.167Z" transform="translate(0 36.991)"/><path class="a" d="M78.452,5.632H8.728A6.5,6.5,0,0,0,2.25,12.11V44.923A6.5,6.5,0,0,0,8.728,51.4H78.452a6.5,6.5,0,0,0,6.478-6.478V12.11A6.5,6.5,0,0,0,78.452,5.632ZM17.383,45.5H10.739a2.584,2.584,0,0,1,0-5.167h6.644a2.584,2.584,0,1,1,0,5.167Zm0-28.79H10.739a2.584,2.584,0,1,1,0-5.167h6.644a2.584,2.584,0,1,1,0,5.167ZM43.59,43.281A14.764,14.764,0,1,1,58.354,28.517,14.784,14.784,0,0,1,43.59,43.281ZM76.44,45.5H69.8a2.584,2.584,0,1,1,0-5.167H76.44a2.584,2.584,0,1,1,0,5.167Zm0-28.79H69.8a2.584,2.584,0,1,1,0-5.167H76.44a2.584,2.584,0,1,1,0,5.167Z" transform="translate(0 0)"/><path class="a" d="M33.836,20.539a9.781,9.781,0,1,1-9.781-9.781,9.781,9.781,0,0,1,9.781,9.781Z" transform="translate(19.535 8.328)"/></g></svg>