<svg xmlns="http://www.w3.org/2000/svg" width="187.496" height="187.41" viewBox="0 0 187.496 187.41"><defs><style>.a{fill:#fff;fill-rule:evenodd;}</style></defs><g transform="translate(-5725.981 -9052.356)"><path class="a" d="M90.326,82.428l-2.85,2.85v17.963H69.945L67.095,106l2.85,2.851H90.326L93.177,106V85.278l-2.851-2.85" transform="translate(5820.3 9130.91)"/><path class="a" d="M178.362,91.205H70.84V85.418l-2.85-2.849-2.764,2.849v8.55l2.764,2.851H178.362l2.85-2.851-2.85-2.763" transform="translate(5660.755 9142.946)"/><path class="a" d="M70.84,108.977H247.021v-22.8H70.84ZM249.871,80.564H67.99l-2.764,2.763v122.2l2.764,2.763,2.85-2.763V114.591H247.021v21.764l2.85,2.849,2.851-2.849V83.327l-2.851-2.763Z" transform="translate(5660.755 8971.792)"/><path class="a" d="M67.937,80.737l-.778,2.073.778,1.986,1.986.777L72,84.8l.777-1.986L72,80.737H67.937" transform="translate(5825.762 8986.561)"/><path class="a" d="M69.742,80.727l-2.764,2.936,2.764,2.763,2.936-2.763-2.936-2.936" transform="translate(5810.312 8985.708)"/><path class="a" d="M67.66,80.737,66.8,82.81,67.66,84.8l2.073.777,1.986-.777L72.5,82.81l-.777-2.073H67.66" transform="translate(5794.777 8986.561)"/><path class="a" d="M247.021,131.638c0,48.622-29.45,68.831-40.246,74.531V90.529c17.7,14.941,33.25,13.991,40.246,12.264Zm-86.191,0V102.793c7.082,1.727,22.541,2.677,40.246-12.264V206.169C190.194,200.47,160.831,180.261,160.831,131.638ZM80.858,186.565,70.84,176.633l10.018-10.018H161l10.277,19.95ZM251.426,96.574l-2.764-.173c-.173.086-19.69,8.722-42.749-14.336l-1.986-.863-1.987.863C179.053,104.951,159.967,96.747,159.1,96.4l-2.678.173-1.3,2.332v32.733A107.309,107.309,0,0,0,159.1,161H80.858a15.589,15.589,0,1,0,0,31.178h94.827c12.523,14.941,26.254,20.813,27.119,21.072l.086.086,1.037.173,1.036-.173.086-.086c1.641-.6,47.673-20.209,47.673-81.613V98.906l-1.3-2.332Z" transform="translate(5660.755 9026.254)"/><path class="a" d="M98.13,86.988A26.989,26.989,0,1,1,71.1,113.934,26.925,26.925,0,0,1,98.13,86.988Zm0,59.591A32.688,32.688,0,1,0,65.4,113.934,32.73,32.73,0,0,0,98.13,146.578Z" transform="translate(5675.523 9026.254)"/><path class="a" d="M77.045,116.641l-5.7-4.923-2.85-2.849-2.85,2.849,8.55,10.105v1.9l2.85,2.765,2.85-2.765v-1.9l8.463-10.105L77.045,101.1l-5.7-4.923,5.7-4.836,5.614,4.836L85.6,98.937l2.763-2.764L79.9,85.982V84.168l-2.85-2.849L74.2,84.168v1.814l-8.55,10.191,11.4,10.537,5.614,5.009-5.614,4.923" transform="translate(5696.609 9036.242)"/><path class="a" d="M66.244,82.283l-.864,2.073.864,1.986,1.986.863,1.986-.863.864-1.986-.864-2.073H66.244" transform="translate(5673.9 9118.533)"/><path class="a" d="M68.9,82.273l-2.851,2.936L68.9,88.059l2.763-2.849L68.9,82.273" transform="translate(5730.667 9117.68)"/><path class="a" d="M68.814,82.273l-2.936,2.936,2.936,2.849,2.764-2.849-2.764-2.936" transform="translate(5716.412 9117.68)"/><path class="a" d="M68.648,82.273l-2.936,2.936,2.936,2.849,2.764-2.849-2.764-2.936" transform="translate(5702.242 9117.68)"/><path class="a" d="M68.4,82.273l-2.851,2.936L68.4,88.059l2.85-2.849L68.4,82.273" transform="translate(5688.072 9117.68)"/><path class="a" d="M71.047,82.283H66.988l-.777,2.073.777,1.986,2.073.863,1.986-.863.864-1.986-.864-2.073" transform="translate(5744.838 9118.533)"/></g></svg>