<svg xmlns="http://www.w3.org/2000/svg" width="162.509" height="163.11" viewBox="0 0 162.509 163.11"><defs><style>.a{fill:#fff;fill-rule:evenodd;}</style></defs><g transform="translate(-5382.289 -7654.196)"><path class="a" d="M162.086,186.724H57.4V33.6h73.97V61.913l2.4,2.478h28.311ZM158.632,59.36H136.253v-22.3Zm8.261,1.727-.075-.225-.45-.751h-.075l-30.715-30.79H135.5l-.676-.451L134.6,28.8l-.676-.15-.15-.075H54.923l-2.478,2.553V189.2l2.478,2.478H164.64l2.4-2.478V61.763l-.15-.676Z" transform="translate(5329.844 7625.626)"/><path class="a" d="M66.08,179.767l-6.458-18.1,4.13-2.178h4.656l4.055,2.178Zm4.656-63.757H61.424l-2.328,1.2V47.6l4.656-2.553h4.656L73.064,47.6v69.615Zm-11.64,40.4V122.844l4.656-2.553h4.656l4.656,2.553v33.568l-2.328-1.277H61.424Zm17.122-112.8L73.59,42.265V31.676l-1.351-2.253L70.511,28.6H61.65l-1.727.826-1.352,2.253V42.265l-3.154,1.652L54.14,46.095V160.542l.15.676v.075l9.462,26.81,2.328,1.577,2.328-1.577,9.462-26.81v-.075l.15-.676V48.948L84.4,57.434V100.84l2.478,2.478,2.478-2.478V57.434A13.956,13.956,0,0,0,76.218,43.617Z" transform="translate(5455.438 7627.625)"/><path class="a" d="M77.915,85.623h48.813V69.852H77.915Zm-20.276,0H73.033V69.852H57.639Zm0-41.829H73.033V34.331H57.639Zm20.276,0h48.813V34.331H77.915Zm0,20.727h48.813V48.75H77.915Zm-20.276,0H73.033V48.75H57.639Zm71.642-35.145h-74.2l-2.4,2.478V88.1l2.4,2.478h74.2l2.4-2.478V31.853l-2.4-2.478Z" transform="translate(5347.404 7685.274)"/><path class="a" d="M52.682,31.656l2.4,2.478h74.2l2.4-2.478-2.4-2.478h-74.2l-2.4,2.478" transform="translate(5347.404 7670.677)"/><path class="a" d="M87.527,30.321H55.085l-2.4,2.478,2.4,2.553H87.527L90.005,32.8l-2.478-2.478" transform="translate(5347.404 7755.37)"/><path class="a" d="M68.6,30.321H55.9L53.5,32.8l2.4,2.553H68.6L71,32.8l-2.4-2.478" transform="translate(5408.091 7755.37)"/><path class="a" d="M55.085,34.012H99.618l2.4-2.478-2.4-2.553H55.085l-2.4,2.553,2.4,2.478" transform="translate(5347.404 7656.005)"/></g></svg>